<svg width="179" height="54" fill="none" xmlns="http://www.w3.org/2000/svg"><path fill-rule="evenodd" clip-rule="evenodd" d="M79.383 15.233h15.171v3.44H83.243v6.059h10.253v3.404H83.243v6.583h11.313v3.48H79.383V15.232zm27.468 6.282v3.853c-.53-.374-1.439-.56-2.233-.56-1.551 0-2.988.859-3.368 2.655v10.735h-3.782V21.591h3.782v1.72c.645-1.234 2.12-2.094 3.747-2.094.832 0 1.587.149 1.852.298h.002zm16.306.076v16.607h-3.783v-1.572c-.91 1.05-2.538 1.946-4.503 1.946-3.821 0-5.902-2.506-5.902-6.172V21.59h3.782v10.174c0 2.057.986 3.404 3.141 3.404 1.627 0 3.065-1.01 3.481-2.655V21.589h3.784v.002zm14.452 16.607v-1.422c-.757.934-2.42 1.795-4.274 1.795-4.919 0-7.795-3.89-7.795-8.677 0-4.75 2.876-8.677 7.795-8.677 1.852 0 3.517.86 4.274 1.795v-9.126h3.784v24.312h-3.784zm0-5.162v-6.283c-.643-1.308-2.081-2.206-3.631-2.206-2.914 0-4.654 2.282-4.654 5.349s1.74 5.347 4.654 5.347c1.55 0 2.988-.896 3.631-2.206v-.001zm11.124-11.445v16.607h-3.783V21.591h3.783zm.453-5.013c0 1.273-1.097 2.284-2.345 2.284-1.249 0-2.346-1.011-2.346-2.284 0-1.271 1.097-2.28 2.346-2.28 1.248 0 2.345 1.009 2.345 2.28zm4.351 17.13v-9.013h-2.648v-3.104h2.648V17.14h3.784v4.45h3.782v3.105h-3.782v8.603c0 1.347.756 1.944 2.005 1.944.758 0 1.628-.3 2.157-.673v3.404c-.643.375-1.666.599-2.838.599-2.988 0-5.108-1.571-5.108-4.864zM179 29.894c0 5.087-3.253 8.678-7.983 8.678-4.729 0-7.984-3.59-7.984-8.678 0-5.086 3.253-8.677 7.985-8.677 4.729 0 7.982 3.59 7.982 8.677zm-3.782 0c0-3.142-1.477-5.461-4.201-5.461-2.724 0-4.2 2.319-4.2 5.461 0 3.142 1.476 5.462 4.2 5.462s4.199-2.32 4.199-5.462h.002z" fill="#303030"/><path d="M22.352 44.31c12.344 0 22.351-9.919 22.351-22.155S34.696 0 22.352 0C10.007 0 0 9.92 0 22.155c0 12.236 10.007 22.156 22.352 22.156z" fill="#9143FD"/><path d="M32.127 54c12.344 0 22.351-9.92 22.351-22.155 0-12.236-10.007-22.156-22.351-22.156-12.345 0-22.352 9.92-22.352 22.156C9.775 44.08 19.782 54 32.127 54z" fill="#00D280"/></svg>