<svg width="24" height="19" fill="none" xmlns="http://www.w3.org/2000/svg"><path d="M23.646 12.07L20.467 1.978A2.795 2.795 0 0 0 16.984.12a.664.664 0 0 0 .384 1.27 1.463 1.463 0 0 1 1.825.974v.005l2.273 7.23a4.944 4.944 0 0 0-2.44-.64 4.982 4.982 0 0 0-4.94 4.4H9.904a4.98 4.98 0 0 0-4.93-4.311 4.97 4.97 0 0 0-2.45.645L4.827 2.37v-.005a1.463 1.463 0 0 1 1.825-.974.662.662 0 0 0 .826-.443.662.662 0 0 0-.442-.827 2.797 2.797 0 0 0-3.484 1.856L.384 12.08a.513.513 0 0 0-.02.084A4.993 4.993 0 0 0 0 14.024 4.983 4.983 0 0 0 4.974 19a4.98 4.98 0 0 0 4.93-4.311h4.207a4.983 4.983 0 0 0 4.915 4.222A4.983 4.983 0 0 0 24 13.936a4.897 4.897 0 0 0-.354-1.865zM4.979 17.672a3.648 3.648 0 0 1 0-7.293 3.648 3.648 0 0 1 3.646 3.646 3.65 3.65 0 0 1-3.646 3.647zm14.052-.088a3.648 3.648 0 0 1-3.646-3.647 3.651 3.651 0 0 1 3.646-3.647 3.651 3.651 0 0 1 3.645 3.647 3.648 3.648 0 0 1-3.645 3.647z" fill="#F92"/></svg>