<svg width="126" height="58" fill="none" xmlns="http://www.w3.org/2000/svg"><path fill-rule="evenodd" clip-rule="evenodd" d="M68.576 6.176L62.389 0 46.792 15.57h12.374l9.41-9.394zM46.893 42.53l4.199 4.191 4.198-4.19h-8.397zm31.093-26.96h-8.599l4.3-4.291 4.299 4.291zM65.51 42.531h12.374L62.389 58l-6.187-6.176 9.31-9.293z" fill="#F92"/><path d="M0 25.549h2.712v5.796c0 3.281 2.054 4.895 5.04 4.895 1.944 0 3.478-.766 4.464-1.805l-1.644-2.816c-.767.601-1.506.93-2.437.93-1.069 0-1.452-.657-1.452-2.38v-4.62h4.355v-3.691H6.683V18.55H2.712v3.308H0v3.691zm13.319 10.526h3.971V26.89c.33-1.203 1.041-1.477 1.671-1.477.52 0 1.096.219 1.287.575l2.027-3.172c-.63-.793-1.287-1.23-2.793-1.23-.932 0-1.89.437-2.192.847v-.574h-3.97v14.217zm10.17 0h3.971V21.858h-3.97v14.217zm-.247-17.99c0 1.175.85 2.023 2.246 2.023 1.287 0 2.219-.848 2.219-2.023 0-1.121-.932-1.969-2.219-1.969-1.315 0-2.246.848-2.246 1.969zm20.074 3.691h-3.971v9.077c-.712 1.203-1.589 1.75-2.93 1.75-1.918 0-2.41-1.312-2.41-3.007v-7.82h-3.972v8.12c0 4.402 1.972 6.398 5.97 6.398a5.337 5.337 0 0 0 3.342-1.148v.93h3.971v-14.3zm22.769 4.839c0-3.28-1.972-5.03-5.505-5.03-1.643 0-2.657.437-3.725 1.53-.986-1.038-2.054-1.53-3.67-1.53-1.342 0-2.657.382-3.424 1.23v-.957H45.79v14.217h3.971v-9.05c.384-.984 1.26-1.75 2.52-1.75 1.068 0 1.67.739 1.67 1.805v8.995h3.972v-9.077c.52-1.176 1.424-1.722 2.356-1.722 1.479 0 1.835 1.093 1.835 2.46v8.34h3.971v-9.46zm21.971-4.757H84.03l-2.273 7.464-2.767-7.464h-2.958l-2.739 7.464-2.41-7.464h-4.108l4.71 14.217h3.123l2.876-7.71 2.848 7.71h3.15l4.574-14.217zm2.796 4.757c1.478-1.039 2.41-1.367 3.944-1.367 1.533 0 2.328.574 2.3 2.023-.602-.218-1.588-.355-2.574-.355-3.397 0-6.464 1.395-6.464 4.675 0 2.817 2.054 4.648 5.204 4.648 1.725 0 3.232-.738 3.834-1.449v1.285h3.972v-8.612c0-3.746-2.164-5.906-5.834-5.906-2.602 0-4.93.793-6.272 2.188l1.89 2.87zm3.231 6.207c-1.205 0-1.917-.465-1.917-1.23 0-1.04 1.178-1.395 2.767-1.395.821 0 1.725.192 2.163.355v.657c-.465.902-1.67 1.613-3.013 1.613zm9.374 3.253h3.971V26.89c.329-1.203 1.041-1.477 1.671-1.477.52 0 1.095.219 1.287.575l2.027-3.172c-.63-.793-1.287-1.23-2.794-1.23-.931 0-1.89.437-2.191.847v-.574h-3.971v14.217zm19.804-5.03c-.849 1.039-2.355 1.558-3.697 1.558-1.753 0-3.205-.656-3.588-2.215h9.805c.164-1.066.219-1.859.219-2.296 0-3.965-2.903-6.535-6.792-6.535-4.821 0-7.396 3.227-7.396 7.382 0 4.484 3.095 7.355 7.697 7.355 2.383 0 4.601-.93 6.135-2.843l-2.383-2.406zm-4.19-5.933c1.451 0 2.465.519 2.821 1.859h-5.834c.493-1.258 1.506-1.86 3.013-1.86z" fill="#303030"/></svg>