<svg width="82" height="80" fill="none" xmlns="http://www.w3.org/2000/svg"><path fill-rule="evenodd" clip-rule="evenodd" d="M77.9 30.473V9.56c0-.754-.612-1.366-1.367-1.366H64.165C48.333-4.599 25.121-2.143 12.321 13.681a36.832 36.832 0 0 0-7.538 16.223A12.266 12.266 0 0 0 0 39.608v5.464c.009 6.324 4.811 11.613 11.108 12.233A5.457 5.457 0 0 0 21.867 56V28.682a5.456 5.456 0 0 0-5.445-5.466 5.457 5.457 0 0 0-5.314 4.16 12.227 12.227 0 0 0-3.134.74C12.788 9.912 31.457-.948 49.675 3.862a34.129 34.129 0 0 1 9.809 4.333H41c-.755 0-1.367.612-1.367 1.366v21.854c0 .755.612 1.366 1.367 1.366h7.517l3.69 4.917a1.367 1.367 0 0 0 2.186 0l3.69-4.917h2.05V56a5.456 5.456 0 0 0 5.446 5.466 5.456 5.456 0 0 0 5.313-4.16c.992-.1 1.969-.32 2.908-.657v3.449c-.008 6.786-5.51 12.284-12.3 12.293h-6.833v-1.366c0-.754-.612-1.366-1.367-1.366h-5.989a5.422 5.422 0 0 0-3.578-1.366h-5.466a5.465 5.465 0 0 0-5.467 5.464 5.465 5.465 0 0 0 5.467 5.463h5.466a5.421 5.421 0 0 0 3.578-1.366H53.3c.755 0 1.367-.611 1.367-1.365v-1.366H61.5c8.299-.01 15.024-6.731 15.033-15.025v-4.81A12.291 12.291 0 0 0 82 45.072V39.61a12.215 12.215 0 0 0-4.1-9.136zm-64.233-1.79a2.732 2.732 0 0 1 5.466 0V56a2.732 2.732 0 0 1-5.466 0V28.682zm-2.734 1.462v24.392a9.578 9.578 0 0 1-8.2-9.464V39.61a9.578 9.578 0 0 1 8.2-9.464zm27.334 46.343a2.732 2.732 0 1 1 0-5.463h5.466a2.733 2.733 0 1 1 0 5.463h-5.466zm13.666-1.365h-2.927a4.901 4.901 0 0 0 0-2.732h2.927v2.732zM68.333 56a2.732 2.732 0 0 1-5.466 0V32.78h5.466V56zM57.4 30.048c-.43 0-.835.203-1.093.547L53.3 34.6l-3.007-4.006a1.367 1.367 0 0 0-1.093-.547h-6.833V10.926h32.8v19.122H57.4zm21.867 15.025a9.563 9.563 0 0 1-8.2 9.452V32.78h5.32a9.508 9.508 0 0 1 2.88 6.83v5.463zM51.809 13.658h-2.623v2.731h2.623v-2.731zm2.858 0h17.766v2.731H54.667v-2.731zm17.766 5.463H45.1v2.732h27.333V19.12zM45.1 24.585h27.333v2.732H45.1v-2.732z" fill="#F92"/></svg>