<svg width="82" height="85" fill="none" xmlns="http://www.w3.org/2000/svg"><path d="M74.931 12.724H36.759v2.828H74.93v-2.828zM60.793 18.38H36.76v2.827h24.034v-2.828zm0 5.655H36.76v2.827h24.034v-2.827zM74.931 7.069H48.069v2.828h26.862V7.069zm-29.69 0h-2.827v2.828h2.827V7.069zm-2.827 49.483h-2.828v2.827h2.828v-2.827zM22.206 9.482l-1.999-1.999-2.827 2.828a1.414 1.414 0 0 0 0 1.999l2.827 2.827 2-1.999-1.829-1.828 1.828-1.828zm11.311.828l-2.828-2.827-1.999 2 1.828 1.827-1.828 1.828 2 2 2.827-2.828a1.414 1.414 0 0 0 0-2zm-7.995-3.69l-2.83 8.483 2.68.894 2.83-8.482-2.68-.895zm46.581 37.208v-11.31h-2.827v11.31h-2.828V29.69h-2.827v14.138h-2.828v-7.07h-2.828v7.07h-2.827v-8.483H52.31v8.483h-2.827v-5.656h-2.828v5.656h-2.827v2.827H74.93v-2.827h-2.828z" fill="#F92"/><path d="M73.517 0H8.483A8.491 8.491 0 0 0 0 8.483v48.069a8.491 8.491 0 0 0 8.483 8.482h17.505l-5.655 11.31h-7.609a4.241 4.241 0 0 0 0 8.484h56.552a4.241 4.241 0 0 0 0-8.483h-7.61l-5.654-11.31h17.505A8.491 8.491 0 0 0 82 56.551V8.482A8.491 8.491 0 0 0 73.517 0zM2.827 19.892l3.214 3.826c.269.32.665.505 1.083.505h4.328c.418 0 .814-.185 1.083-.505l3.215-3.826 3.172 1.03.35 4.982c.03.416.242.799.58 1.044l3.501 2.545a1.42 1.42 0 0 0 1.173.228l4.854-1.206 1.962 2.699-2.645 4.241c-.219.356-.27.79-.138 1.186l1.338 4.116c.13.397.427.717.813.874l4.635 1.879v3.336l-4.637 1.879a1.405 1.405 0 0 0-.813.875l-.424 1.297h-8.145c3.168-6.634.359-14.58-6.275-17.748a13.31 13.31 0 0 0-12.223.388V19.892zm0 17.008a10.502 10.502 0 1 1 15.269 13.997H2.829V36.9zm66.449 42.272a1.414 1.414 0 0 1 0 2.828H12.724a1.414 1.414 0 0 1 0-2.828h56.552zm-10.77-2.827H23.494l5.656-11.31h23.7l5.656 11.31zm20.666-19.793a5.655 5.655 0 0 1-5.655 5.655H8.483a5.655 5.655 0 0 1-5.655-5.655v-2.828h76.344v2.828zm0-5.655H32.878l4.412-1.789c.533-.216.882-.734.882-1.31v-5.243c0-.576-.348-1.094-.882-1.31l-4.914-1.988-.93-2.863 2.802-4.496a1.414 1.414 0 0 0-.057-1.578l-3.081-4.24a1.414 1.414 0 0 0-1.484-.542l-5.14 1.273-2.43-1.765-.372-5.273a1.414 1.414 0 0 0-.974-1.246l-4.983-1.62a1.425 1.425 0 0 0-1.52.437l-3.403 4.05H7.787l-3.404-4.05a1.425 1.425 0 0 0-1.521-.437l-.034.013V8.483a5.655 5.655 0 0 1 5.655-5.655h65.034a5.655 5.655 0 0 1 5.655 5.655v42.414z" fill="#F92"/></svg>