<svg width="82" height="82" fill="none" xmlns="http://www.w3.org/2000/svg"><path fill-rule="evenodd" clip-rule="evenodd" d="M79.267 71.067h1.366c.755 0 1.367.612 1.367 1.366v4.1A5.467 5.467 0 0 1 76.533 82H5.467A5.467 5.467 0 0 1 0 76.533v-4.1c0-.754.612-1.366 1.367-1.366h1.366v-49.2A5.467 5.467 0 0 1 8.2 16.4h8.2V5.467A5.467 5.467 0 0 1 21.867 0h38.266A5.467 5.467 0 0 1 65.6 5.467V16.4h8.2a5.467 5.467 0 0 1 5.467 5.467v49.2zm-57.4-68.334a2.733 2.733 0 0 0-2.734 2.734v5.466h43.734V5.467a2.733 2.733 0 0 0-2.734-2.734H21.867zm41 10.934H19.133V53.3a2.733 2.733 0 0 0 2.734 2.733h38.266a2.733 2.733 0 0 0 2.734-2.733V13.667zm-2.734 45.1H21.867A5.467 5.467 0 0 1 16.4 53.3V24.6h-5.467v38.267h60.134V24.6H65.6v28.7a5.467 5.467 0 0 1-5.467 5.467zM8.2 19.133a2.733 2.733 0 0 0-2.733 2.734v49.2H28.7c.362 0 .71.143.966.399L32 73.8h18.002l2.333-2.334c.256-.256.604-.4.966-.4h23.233v-49.2a2.733 2.733 0 0 0-2.733-2.733h-8.2v2.734h6.833c.755 0 1.367.612 1.367 1.366v41c0 .755-.612 1.367-1.367 1.367H9.567A1.367 1.367 0 0 1 8.2 64.233v-41c0-.754.612-1.366 1.367-1.366H16.4v-2.734H8.2zm68.333 60.134a2.733 2.733 0 0 0 2.734-2.734V73.8H53.866l-2.333 2.333c-.256.256-.604.4-.966.4H31.433c-.362 0-.71-.144-.966-.4L28.134 73.8h-25.4v2.733a2.733 2.733 0 0 0 2.733 2.734h71.066zm-36.9-10.934h2.734v2.734h-2.734v-2.734zm19.134-24.6H23.233v2.734h35.534v-2.734zM23.233 49.2h32.8v2.733h-32.8V49.2zm35.534-10.933H31.433V41h27.334v-2.733zm-36.9-32.8H24.6V8.2h-2.733V5.467zm8.2 0h-2.734V8.2h2.734V5.467zm2.733 0h2.733V8.2H32.8V5.467zm-6.833 32.8V41H28.7v-2.733h-2.733zm3.28-13.394l5.466-4.1 1.64 2.187-4.008 3.007 4.008 3.006-1.64 2.187-5.466-4.1a1.367 1.367 0 0 1 0-2.187zm23.78.274a1.373 1.373 0 0 0-.274-.274l-5.466-4.1-1.64 2.187 4.008 3.007-4.008 3.006 1.64 2.187 5.466-4.1c.604-.453.727-1.31.274-1.913zm-16.03 7.147l5.469-13.665 2.538 1.015-5.469 13.665-2.537-1.015z" fill="#F92"/></svg>