<svg width="82" height="82" fill="none" xmlns="http://www.w3.org/2000/svg"><path d="M13.667 5.467h-2.734V8.2h2.734V5.467zm5.466 0H16.4V8.2h2.733V5.467zm-10.933 0H5.467V8.2H8.2V5.467z" fill="#F92"/><path d="M76.533 0H5.467A5.467 5.467 0 0 0 0 5.467v71.066A5.467 5.467 0 0 0 5.467 82h71.066A5.467 5.467 0 0 0 82 76.533V5.467A5.467 5.467 0 0 0 76.533 0zm2.734 76.533a2.733 2.733 0 0 1-2.734 2.734H5.467a2.733 2.733 0 0 1-2.734-2.734V13.667h76.534v62.866zm0-65.6H2.733V5.467a2.733 2.733 0 0 1 2.734-2.734h71.066a2.733 2.733 0 0 1 2.734 2.734v5.466z" fill="#F92"/><path d="M68.333 41h-4.76a22.926 22.926 0 0 0-2.741-6.635l3.362-3.36a1.367 1.367 0 0 0 0-1.933l-5.8-5.799a1.406 1.406 0 0 0-1.931 0l-3.361 3.362a22.93 22.93 0 0 0-6.635-2.742v-4.76c0-.754-.612-1.366-1.367-1.366h-8.2c-.755 0-1.367.612-1.367 1.366v4.76a22.93 22.93 0 0 0-6.635 2.742l-3.36-3.362a1.367 1.367 0 0 0-1.933 0l-5.799 5.799a1.367 1.367 0 0 0 0 1.932l3.362 3.36A22.926 22.926 0 0 0 18.427 41h-4.76c-.755 0-1.367.612-1.367 1.367v8.2c0 .754.612 1.366 1.367 1.366h4.76a22.926 22.926 0 0 0 2.741 6.636l-3.362 3.36a1.367 1.367 0 0 0 0 1.933l5.8 5.798c.541.513 1.39.513 1.931 0l3.361-3.362a22.93 22.93 0 0 0 6.635 2.742v4.76c0 .755.612 1.367 1.367 1.367h8.2c.755 0 1.367-.612 1.367-1.367v-4.76a22.93 22.93 0 0 0 6.635-2.742l3.36 3.362a1.367 1.367 0 0 0 1.933 0l5.799-5.798a1.367 1.367 0 0 0 0-1.933l-3.362-3.36a22.926 22.926 0 0 0 2.741-6.636h4.76c.755 0 1.367-.612 1.367-1.366v-8.2c0-.755-.612-1.367-1.367-1.367zm-1.366 8.2h-4.498c-.656 0-1.22.466-1.342 1.111a20.288 20.288 0 0 1-3.17 7.675c-.37.543-.301 1.27.162 1.735l3.176 3.174-3.866 3.867-3.172-3.176a1.367 1.367 0 0 0-1.735-.163 20.292 20.292 0 0 1-7.675 3.17 1.366 1.366 0 0 0-1.11 1.343v4.497h-5.47v-4.497c0-.656-.467-1.22-1.111-1.342a20.292 20.292 0 0 1-7.676-3.171 1.367 1.367 0 0 0-1.734.163l-3.175 3.176-3.866-3.867 3.176-3.172a1.367 1.367 0 0 0 .163-1.734 20.288 20.288 0 0 1-3.17-7.675A1.367 1.367 0 0 0 19.53 49.2h-4.498v-5.467h4.498c.656 0 1.22-.466 1.342-1.11a20.29 20.29 0 0 1 3.17-7.676c.37-.542.301-1.27-.162-1.734l-3.176-3.175 3.866-3.866 3.172 3.176a1.367 1.367 0 0 0 1.735.162 20.29 20.29 0 0 1 7.675-3.17 1.367 1.367 0 0 0 1.114-1.342V20.5h5.466v4.498c0 .656.467 1.22 1.111 1.342a20.29 20.29 0 0 1 7.676 3.17c.542.37 1.27.301 1.734-.162l3.175-3.176 3.866 3.866-3.176 3.172a1.367 1.367 0 0 0-.163 1.734 20.288 20.288 0 0 1 3.17 7.675 1.37 1.37 0 0 0 1.343 1.112h4.498V49.2z" fill="#F92"/><path d="M41 28.7c-9.812 0-17.767 7.954-17.767 17.767 0 9.812 7.955 17.766 17.767 17.766s17.767-7.954 17.767-17.766C58.755 36.659 50.807 28.71 41 28.7zm0 32.8c-8.303 0-15.033-6.73-15.033-15.033 0-8.303 6.73-15.034 15.033-15.034 8.303 0 15.033 6.731 15.033 15.034C56.023 54.765 49.3 61.49 41 61.5z" fill="#F92"/><path d="M36.353 43.46l-1.64-2.187-5.466 4.1a1.367 1.367 0 0 0 0 2.187l5.466 4.1 1.64-2.187-4.008-3.006 4.008-3.007zm16.674 2.187a1.373 1.373 0 0 0-.274-.274l-5.466-4.1-1.64 2.187 4.008 3.007-4.008 3.006 1.64 2.187 5.466-4.1c.604-.453.727-1.31.274-1.913zm-10.562-6.514l-5.469 13.665 2.538 1.016 5.468-13.665-2.538-1.016z" fill="#F92"/></svg>