<svg width="179" height="54" viewBox="0 0 179 54" fill="none" xmlns="http://www.w3.org/2000/svg">
<path fill-rule="evenodd" clip-rule="evenodd" d="M79.3826 15.2327H94.554V18.6732H83.2428V24.732H93.4956V28.1356H83.2428V34.7189H94.5556V38.1981H79.3826V15.2327ZM106.851 21.5152V25.3677C106.321 24.9943 105.412 24.8076 104.618 24.8076C103.067 24.8076 101.63 25.667 101.25 27.4629V38.1981H97.4678V21.5908H101.25V23.3111C101.895 22.0768 103.37 21.2174 104.997 21.2174C105.829 21.2174 106.584 21.3655 106.849 21.5152H106.851ZM123.157 21.5908V38.1981H119.374V36.6259C118.464 37.6766 116.836 38.5715 114.871 38.5715C111.05 38.5715 108.969 36.0659 108.969 32.4V21.5908H112.751V31.7644C112.751 33.821 113.737 35.1679 115.892 35.1679C117.519 35.1679 118.957 34.1573 119.373 32.5127V21.5892H123.157V21.5908ZM137.609 38.1981V36.7756C136.852 37.7105 135.189 38.5715 133.335 38.5715C128.416 38.5715 125.54 34.6819 125.54 29.8944C125.54 25.144 128.416 21.2174 133.335 21.2174C135.187 21.2174 136.852 22.0768 137.609 23.0117V13.8857H141.393V38.1981H137.611H137.609ZM137.609 33.0357V26.7532C136.966 25.4448 135.528 24.5469 133.978 24.5469C131.064 24.5469 129.324 26.8288 129.324 29.896C129.324 32.9632 131.064 35.2435 133.978 35.2435C135.528 35.2435 136.966 34.3471 137.609 33.0372V33.0357ZM148.733 21.5908V38.1981H144.95V21.5908H148.732H148.733ZM149.186 16.578C149.186 17.8509 148.089 18.8615 146.841 18.8615C145.592 18.8615 144.495 17.8509 144.495 16.578C144.495 15.3067 145.592 14.2977 146.841 14.2977C148.089 14.2977 149.186 15.3067 149.186 16.578ZM153.537 33.7084V24.695H150.889V21.5908H153.537V17.1396H157.321V21.5908H161.103V24.695H157.321V33.298C157.321 34.6449 158.077 35.242 159.326 35.242C160.084 35.242 160.954 34.9427 161.483 34.5693V37.9728C160.84 38.3477 159.817 38.5715 158.645 38.5715C155.657 38.5715 153.537 37.0008 153.537 33.7084ZM179 29.8944C179 34.9812 175.747 38.5715 171.017 38.5715C166.288 38.5715 163.033 34.9812 163.033 29.8944C163.033 24.8076 166.286 21.2174 171.018 21.2174C175.747 21.2174 179 24.8076 179 29.8944ZM175.218 29.8944C175.218 26.7516 173.741 24.4327 171.017 24.4327C168.293 24.4327 166.817 26.7516 166.817 29.8944C166.817 33.0357 168.293 35.3561 171.017 35.3561C173.741 35.3561 175.216 33.0357 175.216 29.8944H175.218Z" fill="white"/>
<path d="M22.3517 44.3109C34.6961 44.3109 44.7033 34.3915 44.7033 22.1554C44.7033 9.91932 34.6961 0 22.3517 0C10.0072 0 0 9.91932 0 22.1554C0 34.3915 10.0072 44.3109 22.3517 44.3109Z" fill="#9143FD"/>
<g style="mix-blend-mode:multiply">
<path d="M32.1266 53.9999C44.4711 53.9999 54.4783 44.0806 54.4783 31.8445C54.4783 19.6084 44.4711 9.68909 32.1266 9.68909C19.7821 9.68909 9.77496 19.6084 9.77496 31.8445C9.77496 44.0806 19.7821 53.9999 32.1266 53.9999Z" fill="#00D280"/>
</g>
</svg>
