<svg width="24" height="19" viewBox="0 0 24 19" fill="none" xmlns="http://www.w3.org/2000/svg">
<path d="M23.6456 12.0706L20.4673 1.97663C20.0196 0.505112 18.455 -0.326616 16.9839 0.121238C16.6346 0.22951 16.4329 0.59862 16.5411 0.948045C16.6494 1.29747 17.0184 1.49925 17.3677 1.39098C18.1401 1.15475 18.9568 1.59276 19.193 2.36543V2.37035L21.4661 9.59999C20.7428 9.19151 19.9113 8.9602 19.0257 8.9602C16.4772 8.9602 14.3714 10.8894 14.086 13.36H9.904C9.57928 10.9288 7.49319 9.04879 4.97414 9.04879C4.08362 9.04879 3.24721 9.28502 2.52397 9.6935L4.82654 2.37035V2.36543C5.0627 1.59276 5.87943 1.15475 6.65187 1.39098C7.00119 1.49925 7.37511 1.29747 7.47843 0.948045C7.58667 0.59862 7.38495 0.224588 7.03563 0.121238C5.56454 -0.326616 4.0049 0.505112 3.55226 1.97663L0.383762 12.0804C0.373922 12.1099 0.369002 12.1345 0.364082 12.1641C0.132841 12.7399 0 13.3698 0 14.0244C0 16.7657 2.23369 19 4.97414 19C7.49319 19 9.57928 17.12 9.904 14.6888H14.1106C14.4747 17.0757 16.5411 18.9114 19.0257 18.9114C21.7662 18.9114 23.9999 16.6771 23.9999 13.9358C24.0048 13.2763 23.8769 12.6464 23.6456 12.0706ZM4.97906 17.6712C2.96677 17.6712 1.33333 16.0373 1.33333 14.0244C1.33333 12.0115 2.96677 10.3776 4.97906 10.3776C6.99135 10.3776 8.6248 12.0115 8.6248 14.0244C8.6248 16.0373 6.98643 17.6712 4.97906 17.6712ZM19.0306 17.5826C17.0184 17.5826 15.3849 15.9487 15.3849 13.9358C15.3849 11.9229 17.0233 10.289 19.0306 10.289C21.038 10.289 22.6764 11.9229 22.6764 13.9358C22.6764 15.9487 21.0429 17.5826 19.0306 17.5826Z" fill="#FF9922"/>
</svg>
