<svg width="126" height="58" viewBox="0 0 126 58" fill="none" xmlns="http://www.w3.org/2000/svg">
<path fill-rule="evenodd" clip-rule="evenodd" d="M68.5757 6.17593L62.389 0L46.7925 15.5694H59.1658L68.5757 6.17593ZM46.8933 42.5312L51.0916 46.7222L55.2899 42.5312H46.8933ZM77.9855 15.5694H69.3873L73.6864 11.2778L77.9855 15.5694ZM65.5114 42.5312H77.8848L62.389 58L56.2023 51.8241L65.5114 42.5312Z" fill="#FF9922"/>
<path d="M0 25.549H2.71151V31.3454C2.71151 34.6264 4.76569 36.2395 7.75109 36.2395C9.69572 36.2395 11.2295 35.474 12.2155 34.435L10.5722 31.6188C9.80527 32.2203 9.06577 32.5484 8.13454 32.5484C7.06637 32.5484 6.68292 31.8922 6.68292 30.1697V25.549H11.0378V21.8579H6.68292V18.5496H2.71151V21.8579H0V25.549Z" fill="#303030"/>
<path d="M13.319 36.0755H17.2904V26.8887C17.6191 25.6857 18.3312 25.4123 18.9611 25.4123C19.4815 25.4123 20.0567 25.631 20.2484 25.9865L22.2752 22.8149C21.6452 22.022 20.9879 21.5845 19.4815 21.5845C18.5503 21.5845 17.5917 22.022 17.2904 22.4321V21.8579H13.319V36.0755Z" fill="#303030"/>
<path d="M23.4887 36.0755H27.4601V21.8579H23.4887V36.0755ZM23.2422 18.0848C23.2422 19.2605 24.0912 20.1081 25.4881 20.1081C26.7753 20.1081 27.7066 19.2605 27.7066 18.0848C27.7066 16.9638 26.7753 16.1162 25.4881 16.1162C24.1734 16.1162 23.2422 16.9638 23.2422 18.0848Z" fill="#303030"/>
<path d="M43.3164 21.7759H39.345V30.8533C38.6329 32.0563 37.7564 32.6031 36.4143 32.6031C34.4971 32.6031 34.0041 31.2907 34.0041 29.5956V21.7759H30.0327V29.8963C30.0327 34.2983 32.0047 36.2942 36.0035 36.2942C37.5099 36.2942 38.6055 35.72 39.345 35.1459V36.0755H43.3164V21.7759Z" fill="#303030"/>
<path d="M66.0852 26.6153C66.0852 23.3344 64.1132 21.5845 60.58 21.5845C58.9367 21.5845 57.9233 22.022 56.8551 23.1156C55.8691 22.0767 54.8009 21.5845 53.185 21.5845C51.8429 21.5845 50.5283 21.9673 49.7614 22.8149V21.8579H45.79V36.0755H49.7614V27.0255C50.1448 26.0412 51.0213 25.2756 52.2812 25.2756C53.3493 25.2756 53.9519 26.0138 53.9519 27.0801V36.0755H57.9233V26.9981C58.4437 25.8224 59.3475 25.2756 60.2788 25.2756C61.7578 25.2756 62.1138 26.3693 62.1138 27.7363V36.0755H66.0852V26.6153Z" fill="#303030"/>
<path d="M88.0559 21.8579H84.0297L81.7565 29.3221L78.9902 21.8579H76.0322L73.2932 29.3221L70.883 21.8579H66.7747L71.4856 36.0755H74.6079L77.4838 28.3652L80.3322 36.0755H83.482L88.0559 21.8579Z" fill="#303030"/>
<path d="M90.8515 26.6153C92.3305 25.5764 93.2618 25.2483 94.7956 25.2483C96.3293 25.2483 97.1236 25.8224 97.0962 27.2715C96.4937 27.0528 95.5077 26.9161 94.5217 26.9161C91.1254 26.9161 88.0579 28.3105 88.0579 31.5915C88.0579 34.4077 90.112 36.2395 93.2618 36.2395C94.9873 36.2395 96.4937 35.5013 97.0962 34.7904V36.0755H101.068V27.4629C101.068 23.7171 98.9039 21.5572 95.2338 21.5572C92.6318 21.5572 90.3038 22.3501 88.9617 23.7445L90.8515 26.6153ZM94.0834 32.8218C92.8783 32.8218 92.1662 32.357 92.1662 31.5915C92.1662 30.5525 93.3439 30.1971 94.9325 30.1971C95.7542 30.1971 96.658 30.3885 97.0962 30.5525V31.2087C96.6306 32.111 95.4255 32.8218 94.0834 32.8218Z" fill="#303030"/>
<path d="M103.457 36.0755H107.428V26.8887C107.757 25.6857 108.469 25.4123 109.099 25.4123C109.619 25.4123 110.194 25.631 110.386 25.9865L112.413 22.8149C111.783 22.022 111.126 21.5845 109.619 21.5845C108.688 21.5845 107.729 22.022 107.428 22.4321V21.8579H103.457V36.0755Z" fill="#303030"/>
<path d="M123.261 31.0447C122.412 32.0836 120.906 32.6031 119.564 32.6031C117.811 32.6031 116.359 31.9469 115.976 30.3885H125.781C125.945 29.3221 126 28.5292 126 28.0918C126 24.1273 123.097 21.5572 119.208 21.5572C114.387 21.5572 111.812 24.7835 111.812 28.9394C111.812 33.4234 114.907 36.2942 119.509 36.2942C121.892 36.2942 124.11 35.3646 125.644 33.4507L123.261 31.0447ZM119.071 25.1116C120.522 25.1116 121.536 25.631 121.892 26.9708H116.058C116.551 25.7131 117.564 25.1116 119.071 25.1116Z" fill="#303030"/>
</svg>
