<svg width="82" height="82" viewBox="0 0 82 82" fill="none" xmlns="http://www.w3.org/2000/svg">
<path fill-rule="evenodd" clip-rule="evenodd" d="M79.2667 71.0667H80.6333C81.3881 71.0667 82 71.6786 82 72.4333V76.5333C82 79.5525 79.5525 82 76.5333 82H5.46667C2.44753 82 0 79.5525 0 76.5333V72.4333C0 71.6786 0.611925 71.0667 1.36667 71.0667H2.73333V21.8667C2.73333 18.8475 5.18086 16.4 8.2 16.4H16.4V5.46667C16.4 2.44753 18.8475 0 21.8667 0H60.1333C63.1525 0 65.6 2.44753 65.6 5.46667V16.4H73.8C76.8191 16.4 79.2667 18.8475 79.2667 21.8667V71.0667ZM21.8667 2.73333C20.357 2.73333 19.1333 3.95702 19.1333 5.46667V10.9333H62.8667V5.46667C62.8667 3.95702 61.643 2.73333 60.1333 2.73333H21.8667ZM62.8667 13.6667H19.1333V53.3C19.1333 54.8097 20.357 56.0333 21.8667 56.0333H60.1333C61.643 56.0333 62.8667 54.8097 62.8667 53.3V13.6667ZM60.1333 58.7667H21.8667C18.8475 58.7667 16.4 56.3191 16.4 53.3V24.6H10.9333V62.8667H71.0667V24.6H65.6V53.3C65.6 56.3191 63.1525 58.7667 60.1333 58.7667ZM8.2 19.1333C6.69034 19.1333 5.46667 20.357 5.46667 21.8667V71.0667H28.7C29.0622 71.0663 29.4098 71.21 29.6662 71.4657L31.9991 73.8H50.0009L52.3338 71.4657C52.5902 71.21 52.9378 71.0663 53.3 71.0667H76.5333V21.8667C76.5333 20.357 75.3096 19.1333 73.8 19.1333H65.6V21.8667H72.4333C73.1881 21.8667 73.8 22.4786 73.8 23.2333V64.2333C73.8 64.9881 73.1881 65.6 72.4333 65.6H9.56667C8.81192 65.6 8.2 64.9881 8.2 64.2333V23.2333C8.2 22.4786 8.81192 21.8667 9.56667 21.8667H16.4V19.1333H8.2ZM76.5333 79.2667C78.043 79.2667 79.2667 78.043 79.2667 76.5333V73.8H53.8658L51.5329 76.1329C51.2766 76.3892 50.9292 76.5333 50.5667 76.5333H31.4333C31.0708 76.5333 30.7233 76.3892 30.4671 76.1329L28.1342 73.8H2.73333V76.5333C2.73333 78.043 3.95701 79.2667 5.46667 79.2667H76.5333ZM39.6333 68.3333H42.3667V71.0667H39.6333V68.3333ZM58.7667 43.7333H23.2333V46.4667H58.7667V43.7333ZM23.2333 49.2H56.0333V51.9333H23.2333V49.2ZM58.7667 38.2667H31.4333V41H58.7667V38.2667ZM21.8667 5.46667H24.6V8.2H21.8667V5.46667ZM30.0667 5.46667H27.3333V8.2H30.0667V5.46667ZM32.8 5.46667H35.5333V8.2H32.8V5.46667ZM25.9667 38.2667V41H28.7V38.2667H25.9667ZM29.2467 24.8733L34.7133 20.7733L36.3533 22.96L32.3449 25.9667L36.3533 28.9733L34.7133 31.16L29.2467 27.06C29.1431 26.9823 29.0511 26.8902 28.9733 26.7867C28.5205 26.1828 28.6428 25.3262 29.2467 24.8733ZM53.0267 25.1467C52.9489 25.0431 52.8569 24.9511 52.7533 24.8733L47.2867 20.7733L45.6467 22.96L49.6551 25.9667L45.6467 28.9733L47.2867 31.16L52.7533 27.06C53.3572 26.6071 53.4795 25.7506 53.0267 25.1467ZM36.9977 32.2937L42.4658 18.6286L45.0035 19.644L39.5354 33.3091L36.9977 32.2937Z" fill="#FF9922"/>
</svg>
