<svg width="82" height="82" viewBox="0 0 82 82" fill="none" xmlns="http://www.w3.org/2000/svg">
<path d="M13.6667 5.46667H10.9333V8.2H13.6667V5.46667Z" fill="#FF9922"/>
<path d="M19.1333 5.46667H16.4V8.2H19.1333V5.46667Z" fill="#FF9922"/>
<path d="M8.2 5.46667H5.46667V8.2H8.2V5.46667Z" fill="#FF9922"/>
<path d="M76.5333 0H5.46667C2.44753 0 0 2.44753 0 5.46667V76.5333C0 79.5525 2.44753 82 5.46667 82H76.5333C79.5525 82 82 79.5525 82 76.5333V5.46667C82 2.44753 79.5525 0 76.5333 0ZM79.2667 76.5333C79.2667 78.043 78.043 79.2667 76.5333 79.2667H5.46667C3.95701 79.2667 2.73333 78.043 2.73333 76.5333V13.6667H79.2667V76.5333ZM79.2667 10.9333H2.73333V5.46667C2.73333 3.95701 3.95701 2.73333 5.46667 2.73333H76.5333C78.043 2.73333 79.2667 3.95701 79.2667 5.46667V10.9333Z" fill="#FF9922"/>
<path d="M68.3333 41H63.5732C63.0134 38.658 62.0884 36.4189 60.8317 34.3648L64.1937 31.0042C64.7272 30.4705 64.7272 29.6054 64.1937 29.0717L58.3949 23.273C57.8527 22.7603 57.0047 22.7603 56.4625 23.273L53.1018 26.635C51.0477 25.3783 48.8086 24.4533 46.4667 23.8934V19.1333C46.4667 18.3786 45.8547 17.7667 45.1 17.7667H36.9C36.1453 17.7667 35.5333 18.3786 35.5333 19.1333V23.8934C33.1914 24.4533 30.9523 25.3783 28.8982 26.635L25.5375 23.273C25.0039 22.7395 24.1388 22.7395 23.6051 23.273L17.8063 29.0717C17.2728 29.6054 17.2728 30.4705 17.8063 31.0042L21.1683 34.3648C19.9116 36.4189 18.9866 38.658 18.4268 41H13.6667C12.9119 41 12.3 41.6119 12.3 42.3667V50.5667C12.3 51.3214 12.9119 51.9333 13.6667 51.9333H18.4268C18.9866 54.2753 19.9116 56.5144 21.1683 58.5685L17.8063 61.9291C17.2728 62.4628 17.2728 63.3279 17.8063 63.8616L23.6051 69.6604C24.1473 70.173 24.9953 70.173 25.5375 69.6604L28.8982 66.2984C30.9523 67.555 33.1914 68.4801 35.5333 69.0399V73.8C35.5333 74.5547 36.1453 75.1667 36.9 75.1667H45.1C45.8547 75.1667 46.4667 74.5547 46.4667 73.8V69.0399C48.8086 68.4801 51.0477 67.555 53.1018 66.2984L56.4625 69.6604C56.9962 70.1939 57.8613 70.1939 58.3949 69.6604L64.1937 63.8616C64.7272 63.3279 64.7272 62.4628 64.1937 61.9291L60.8317 58.5685C62.0884 56.5144 63.0134 54.2753 63.5732 51.9333H68.3333C69.0881 51.9333 69.7 51.3214 69.7 50.5667V42.3667C69.7 41.6119 69.0881 41 68.3333 41ZM66.9667 49.2H62.469C61.813 49.2002 61.2496 49.6665 61.1269 50.3111C60.6105 53.0607 59.531 55.6739 57.9562 57.9863C57.5872 58.5285 57.6556 59.2564 58.1189 59.7206L61.295 62.8954L57.4287 66.7617L54.2567 63.5855C53.7925 63.1222 53.0646 63.0539 52.5224 63.4229C50.21 64.9976 47.5967 66.0771 44.8472 66.5936C44.2026 66.7162 43.7362 67.2796 43.7361 67.9356V72.4333H38.2667V67.9356C38.2665 67.2796 37.8001 66.7162 37.1556 66.5936C34.406 66.0771 31.7928 64.9976 29.4804 63.4229C28.9381 63.0539 28.2102 63.1222 27.7461 63.5855L24.5713 66.7617L20.705 62.8954L23.8811 59.7233C24.3444 59.2592 24.4128 58.5313 24.0438 57.989C22.469 55.6766 21.3895 53.0634 20.8731 50.3138C20.7516 49.6683 20.1879 49.2005 19.531 49.2H15.0333V43.7333H19.531C20.187 43.7332 20.7504 43.2668 20.8731 42.6222C21.3895 39.8727 22.469 37.2594 24.0438 34.947C24.4128 34.4048 24.3444 33.6769 23.8811 33.2127L20.705 30.038L24.5713 26.1717L27.7433 29.3478C28.2075 29.8111 28.9354 29.8794 29.4776 29.5104C31.79 27.9357 34.4033 26.8562 37.1528 26.3398C37.7984 26.2183 38.2662 25.6546 38.2667 24.9977V20.5H43.7333V24.9977C43.7335 25.6537 44.1999 26.2171 44.8444 26.3398C47.594 26.8562 50.2072 27.9357 52.5196 29.5104C53.0619 29.8794 53.7898 29.8111 54.2539 29.3478L57.4287 26.1717L61.295 30.038L58.1189 33.21C57.6556 33.6742 57.5872 34.4021 57.9562 34.9443C59.531 37.2567 60.6105 39.8699 61.1269 42.6195C61.2496 43.2641 61.813 43.7304 62.469 43.7306H66.9667V49.2Z" fill="#FF9922"/>
<path d="M41 28.7C31.1877 28.7 23.2333 36.6543 23.2333 46.4667C23.2333 56.279 31.1877 64.2333 41 64.2333C50.8123 64.2333 58.7667 56.279 58.7667 46.4667C58.7554 36.6591 50.8075 28.7113 41 28.7ZM41 61.5C32.6973 61.5 25.9667 54.7693 25.9667 46.4667C25.9667 38.164 32.6973 31.4333 41 31.4333C49.3027 31.4333 56.0333 38.164 56.0333 46.4667C56.0236 54.7652 49.2986 61.4903 41 61.5Z" fill="#FF9922"/>
<path d="M36.3533 43.46L34.7133 41.2733L29.2467 45.3733C28.6428 45.8262 28.5205 46.6828 28.9733 47.2867C29.0511 47.3902 29.1431 47.4823 29.2467 47.56L34.7133 51.66L36.3533 49.4733L32.3449 46.4667L36.3533 43.46Z" fill="#FF9922"/>
<path d="M53.0267 45.6467C52.9489 45.5431 52.8569 45.4511 52.7533 45.3733L47.2867 41.2733L45.6467 43.46L49.6551 46.4667L45.6467 49.4733L47.2867 51.66L52.7533 47.56C53.3572 47.1071 53.4795 46.2506 53.0267 45.6467Z" fill="#FF9922"/>
<path d="M42.4645 39.1333L36.9964 52.7984L39.534 53.8139L45.0022 40.1488L42.4645 39.1333Z" fill="#FF9922"/>
</svg>
