<svg width="82" height="85" viewBox="0 0 82 85" fill="none" xmlns="http://www.w3.org/2000/svg">
<path d="M74.931 12.7241H36.7586V15.5517H74.931V12.7241Z" fill="#FF9922"/>
<path d="M60.7931 18.3793H36.7586V21.2069H60.7931V18.3793Z" fill="#FF9922"/>
<path d="M60.7931 24.0345H36.7586V26.8621H60.7931V24.0345Z" fill="#FF9922"/>
<path d="M74.931 7.06897H48.069V9.89655H74.931V7.06897Z" fill="#FF9922"/>
<path d="M45.2414 7.06897H42.4138V9.89655H45.2414V7.06897Z" fill="#FF9922"/>
<path d="M42.4138 56.5517H39.5862V59.3793H42.4138V56.5517Z" fill="#FF9922"/>
<path d="M22.2064 9.48231L20.2073 7.48321L17.3798 10.3108C16.8278 10.8629 16.8278 11.7578 17.3798 12.3099L20.2073 15.1375L22.2064 13.1384L20.3784 11.3103L22.2064 9.48231Z" fill="#FF9922"/>
<path d="M33.5168 10.3108L30.6892 7.48321L28.6901 9.48231L30.5181 11.3103L28.6901 13.1384L30.6892 15.1375L33.5168 12.3099C34.0687 11.7578 34.0687 10.8629 33.5168 10.3108Z" fill="#FF9922"/>
<path d="M25.5218 6.62024L22.6916 15.1028L25.3725 15.9973L28.2027 7.51472L25.5218 6.62024Z" fill="#FF9922"/>
<path d="M72.1034 43.8276V32.5172H69.2759V43.8276H66.4483V29.6897H63.6207V43.8276H60.7931V36.7586H57.9655V43.8276H55.1379V35.3448H52.3103V43.8276H49.4828V38.1724H46.6552V43.8276H43.8276V46.6552H74.931V43.8276H72.1034Z" fill="#FF9922"/>
<path d="M73.5172 0H8.48276C3.79975 0.00459483 0.00459483 3.79975 0 8.48276V56.5517C0.00459483 61.2347 3.79975 65.0299 8.48276 65.0345H25.9883L20.3332 76.3448H12.7241C10.3817 76.3448 8.48276 78.2437 8.48276 80.5862C8.48276 82.9287 10.3817 84.8276 12.7241 84.8276H69.2759C71.6183 84.8276 73.5172 82.9287 73.5172 80.5862C73.5172 78.2437 71.6183 76.3448 69.2759 76.3448H61.6668L56.0117 65.0345H73.5172C78.2003 65.0299 81.9954 61.2347 82 56.5517V8.48276C81.9954 3.79975 78.2003 0.00459483 73.5172 0ZM2.82759 19.8921L6.04114 23.7178C6.30976 24.0378 6.70633 24.2225 7.1241 24.2225H11.4517C11.8695 24.2225 12.2661 24.0378 12.5347 23.7178L15.7497 19.8921L18.9222 20.9227L19.2728 25.9035C19.3018 26.3201 19.5135 26.7025 19.8511 26.9483L23.353 29.4931C23.6918 29.7377 24.1209 29.821 24.5265 29.7208L29.38 28.5148L31.3424 31.2137L28.6972 35.4551C28.478 35.8107 28.4273 36.2449 28.5586 36.6413L29.8975 40.7568C30.0263 41.1537 30.3237 41.4736 30.7104 41.6306L35.3448 43.5095V46.846L30.7076 48.725C30.32 48.8812 30.0221 49.2019 29.8947 49.6001L29.4705 50.8966H21.3257C24.494 44.263 21.6848 36.317 15.0512 33.1487C11.155 31.2878 6.598 31.4323 2.82759 33.5366V19.8921ZM2.82759 36.9C7.4005 33.3325 13.9997 34.1475 17.5671 38.7206C20.3215 42.2512 20.5341 47.1401 18.0966 50.8966H2.82759V36.9ZM69.2759 79.1724C70.0566 79.1724 70.6897 79.8054 70.6897 80.5862C70.6897 81.367 70.0566 82 69.2759 82H12.7241C11.9434 82 11.3103 81.367 11.3103 80.5862C11.3103 79.8054 11.9434 79.1724 12.7241 79.1724H69.2759ZM58.5056 76.3448H23.4944L29.1496 65.0345H52.8504L58.5056 76.3448ZM79.1724 56.5517C79.1724 59.675 76.6405 62.2069 73.5172 62.2069H8.48276C5.35951 62.2069 2.82759 59.675 2.82759 56.5517V53.7241H79.1724V56.5517ZM79.1724 50.8966H32.8778L37.2902 49.1081C37.8232 48.8918 38.1721 48.3742 38.1724 47.7989V42.5552C38.1726 41.9794 37.8237 41.4611 37.2902 41.2446L32.3759 39.2568L31.4456 36.3939L34.2477 31.898C34.5517 31.4095 34.5292 30.7857 34.1912 30.3202L31.1091 26.0788C30.7707 25.6128 30.1836 25.3986 29.6246 25.5373L24.4841 26.8098L22.0552 25.0453L21.6833 19.7719C21.6429 19.197 21.2574 18.7041 20.7092 18.5263L15.7256 16.9061C15.1772 16.7315 14.5778 16.9038 14.2058 17.343L10.8028 21.3935H7.78717L4.38276 17.343C4.01058 16.9033 3.41025 16.7308 2.86152 16.9061L2.82759 16.9189V8.48276C2.82759 5.35951 5.35951 2.82759 8.48276 2.82759H73.5172C76.6405 2.82759 79.1724 5.35951 79.1724 8.48276V50.8966Z" fill="#FF9922"/>
</svg>
