<svg width="82" height="80" viewBox="0 0 82 80" fill="none" xmlns="http://www.w3.org/2000/svg">
<path fill-rule="evenodd" clip-rule="evenodd" d="M77.9 30.473V9.55989C77.9 8.80558 77.2881 8.194 76.5333 8.194H64.165C48.3327 -4.59928 25.121 -2.14272 12.3207 13.6806C8.51297 18.3873 5.92433 23.9591 4.78333 29.9035C1.77052 32.2234 0.00375833 35.8082 0 39.6095V45.0731C0.00888333 51.3971 4.81101 56.6857 11.1083 57.306C11.8232 60.2322 14.7764 62.025 17.7041 61.3104C20.1518 60.713 21.8721 58.5184 21.8667 56.0002V28.6824C21.8733 25.6702 19.4354 23.2231 16.4215 23.2164C13.9019 23.2109 11.706 24.9303 11.1083 27.3766C10.0356 27.4841 8.9819 27.7331 7.9745 28.1169C12.7876 9.91058 31.4569 -0.949105 49.6735 3.86122C53.1514 4.77961 56.4619 6.24197 59.4828 8.194H41C40.2453 8.194 39.6333 8.80558 39.6333 9.55989V31.4141C39.6333 32.1685 40.2453 32.78 41 32.78H48.5167L52.2067 37.6972C52.6595 38.3008 53.5161 38.423 54.12 37.9704C54.2235 37.8927 54.3156 37.8007 54.3933 37.6972L58.0833 32.78H60.1333V56.0002C60.1267 59.0123 62.5646 61.4595 65.5785 61.4661C68.0981 61.4716 70.294 59.7523 70.8917 57.306C71.8843 57.2063 72.8609 56.9855 73.8 56.649V60.0979C73.7918 66.8836 68.2896 72.3825 61.5 72.3909H54.6667V71.025C54.6667 70.2707 54.0547 69.6591 53.3 69.6591H47.3113C46.3247 68.7837 45.0525 68.2982 43.7333 68.2932H38.2667C35.2475 68.2932 32.8 70.7393 32.8 73.7568C32.8 76.7742 35.2475 79.2203 38.2667 79.2203H43.7333C45.0525 79.2154 46.3247 78.7298 47.3113 77.8544H53.3C54.0547 77.8544 54.6667 77.2429 54.6667 76.4885V75.1227H61.5C69.7986 75.1129 76.5236 68.3917 76.5333 60.0979V55.2872C79.9469 53.0077 81.9976 49.1762 82 45.0731V39.6095C82.0021 36.1184 80.51 32.7932 77.9 30.473ZM13.6667 28.6824C13.6667 27.1736 14.8903 25.9506 16.4 25.9506C17.9097 25.9506 19.1333 27.1736 19.1333 28.6824V56.0002C19.1333 57.509 17.9097 58.732 16.4 58.732C14.8903 58.732 13.6667 57.509 13.6667 56.0002V28.6824ZM10.9333 30.1452V54.5373C6.22944 53.8522 2.73931 49.824 2.73333 45.0731V39.6095C2.73931 34.8586 6.22944 30.8304 10.9333 30.1452ZM38.2667 76.4885C36.757 76.4885 35.5333 75.2656 35.5333 73.7568C35.5333 72.248 36.757 71.025 38.2667 71.025H43.7333C45.243 71.025 46.4667 72.248 46.4667 73.7568C46.4667 75.2656 45.243 76.4885 43.7333 76.4885H38.2667ZM51.9333 75.1227H49.0059C49.2648 74.2304 49.2648 73.2831 49.0059 72.3909H51.9333V75.1227ZM68.3333 56.0002C68.3333 57.509 67.1097 58.732 65.6 58.732C64.0903 58.732 62.8667 57.509 62.8667 56.0002V32.78H68.3333V56.0002ZM57.4 30.0483C56.9698 30.0483 56.5648 30.2507 56.3067 30.5946L53.3 34.6008L50.2933 30.5946C50.0352 30.2507 49.6302 30.0483 49.2 30.0483H42.3667V10.9258H75.1667V30.0483H57.4ZM79.2667 45.0731C79.261 49.8217 75.7692 53.8467 71.0667 54.525V32.78H76.3871C78.2314 34.5738 79.2703 37.0375 79.2667 39.6095V45.0731ZM51.809 13.6576H49.1863V16.3893H51.809V13.6576ZM54.6667 13.6576H72.4333V16.3893H54.6667V13.6576ZM72.4333 19.1211H45.1V21.8529H72.4333V19.1211ZM45.1 24.5847H72.4333V27.3165H45.1V24.5847Z" fill="#FF9922"/>
</svg>
